<?xml version="1.0" encoding="UTF-8"?>
<svg version="1.1" xmlns="http://www.w3.org/2000/svg" width="512" height="512">
<path d="M0 0 C20.36481306 -0.40567357 44.63133611 0.89413233 63.81640625 8.12890625 C63.12024849 15.91203645 61.13601137 23.35820492 59.21875 30.91015625 C58.86104236 32.33351446 58.50375437 33.75697818 58.14686584 35.18054199 C57.21233537 38.90348625 56.27215803 42.62498133 55.33074951 46.34619141 C54.36874084 50.15310331 53.41214584 53.96137477 52.45507812 57.76953125 C50.5807809 65.22398823 48.70050885 72.67692079 46.81640625 80.12890625 C45.96253326 79.9973111 45.10866028 79.86571594 44.22891235 79.73013306 C41.8743077 79.36751683 39.51961877 79.00544758 37.16485596 78.64385986 C35.31003006 78.35860866 33.45534376 78.07242837 31.60125732 77.78240967 C21.86320477 76.27112875 12.27364762 75.72616243 2.44140625 75.75390625 C1.34055695 75.75472198 1.34055695 75.75472198 0.21746826 75.7555542 C-27.54111814 75.84930534 -53.26505374 81.97380621 -78.18359375 94.12890625 C-78.83134766 94.44053711 -79.47910156 94.75216797 -80.14648438 95.07324219 C-121.04456183 114.97472684 -152.77572193 151.84316507 -168.1640625 194.45703125 C-183.98106879 240.64781321 -181.5391281 291.81408484 -160.03637695 335.80395508 C-157.2575906 341.34652848 -154.28683507 346.76188136 -151.18359375 352.12890625 C-147.26334504 349.95334481 -144.1470669 347.43205634 -140.87109375 344.37890625 C-137.65085007 341.40405547 -134.43212327 338.44000301 -131.12109375 335.56640625 C-127.18697158 332.15142597 -123.33179538 328.65242748 -119.48046875 325.14453125 C-113.7649891 320.12890625 -113.7649891 320.12890625 -111.18359375 320.12890625 C-108.74672217 329.41176386 -106.77324508 338.76523041 -104.90551758 348.17529297 C-104.59004156 349.75356128 -104.2743252 351.33178157 -103.95838928 352.90995789 C-103.1086396 357.15895029 -102.2626426 361.40868113 -101.41768098 365.65862799 C-100.71027264 369.2153809 -100.00123144 372.77180761 -99.2922737 376.32825196 C-97.62047902 384.71534202 -95.95199377 393.10308593 -94.28540039 401.49121094 C-92.56779977 410.13566258 -90.8437225 418.7788054 -89.11664182 427.42136753 C-87.63054084 434.85946913 -86.1488627 442.29844277 -84.67063731 449.73811352 C-83.78913593 454.17419948 -82.90587144 458.60991616 -82.0181675 463.04476547 C-81.18488226 467.20856159 -80.35711181 471.37341653 -79.5335598 475.53914833 C-79.23079065 477.06574195 -78.92606723 478.5919495 -78.61923218 480.11773109 C-78.20024643 482.20278809 -77.78838557 484.2891329 -77.37825012 486.37594604 C-77.0301263 488.12517522 -77.0301263 488.12517522 -76.67496967 489.90974236 C-76.19715571 493.0400574 -76.09204987 495.96823661 -76.18359375 499.12890625 C-85.95093467 496.30472794 -95.55720589 493.01947607 -105.1875 489.765625 C-107.07034731 489.13072108 -108.95323703 488.49594292 -110.83616638 487.86128235 C-114.79469019 486.52663361 -118.75283732 485.1908757 -122.71069336 483.85424805 C-127.64872369 482.1866297 -132.58744567 480.52107234 -137.52643108 478.8562851 C-174.45574121 466.40759472 -211.33659338 453.81903363 -248.18359375 441.12890625 C-248.18359375 438.12890625 -248.18359375 438.12890625 -246.3828125 436.18359375 C-245.13951172 435.10464844 -245.13951172 435.10464844 -243.87109375 434.00390625 C-242.95457031 433.2046875 -242.03804687 432.40546875 -241.09375 431.58203125 C-237.45238067 428.51252798 -233.75362488 425.5182303 -230.05078125 422.5234375 C-226.39547312 419.47070741 -222.9012444 416.26562834 -219.40966797 413.02856445 C-215.74396149 409.63023749 -212.0089182 406.34565636 -208.18359375 403.12890625 C-209.98879465 399.89458796 -211.81799118 396.70279682 -213.80859375 393.578125 C-234.6891161 360.73480338 -247.25685712 324.6884114 -252.18359375 286.12890625 C-252.28599365 285.38866211 -252.38839355 284.64841797 -252.49389648 283.88574219 C-255.5827048 258.45372119 -254.18628611 231.16307457 -249.18359375 206.12890625 C-249.00699219 205.21028809 -248.83039063 204.29166992 -248.6484375 203.34521484 C-241.50150931 167.11425941 -225.37277662 132.55645286 -203.18359375 103.12890625 C-202.75997559 102.56107422 -202.33635742 101.99324219 -201.89990234 101.40820312 C-160.7949204 46.56033704 -100.0272607 12.77107526 -32.68359375 2.4140625 C-21.82477483 0.93821112 -10.93757731 0.44287123 0 0 Z " fill="#8B85A6" transform="translate(254.18359375,-0.12890625)"/>
<path d="M0 0 C6.31801504 1.30224048 12.31252951 2.9833895 18.40234375 5.09765625 C19.29638412 5.40357193 20.1904245 5.70948761 21.11155701 6.02467346 C24.05506325 7.03289588 26.99623926 8.04774758 29.9375 9.0625 C32.02602433 9.77900825 34.11473249 10.49498086 36.20361328 11.21044922 C40.58444224 12.71125186 44.96454633 14.21414451 49.34423828 15.71826172 C58.96702267 19.0202992 68.60125726 22.28860006 78.2348938 25.55880737 C109.85018315 36.29347246 141.46581318 47.02888789 173 58 C169.103382 62.80087405 165.00959486 66.93728198 160.25 70.875 C159.00823074 71.91952307 157.76735009 72.96510343 156.52734375 74.01171875 C155.92519043 74.51880371 155.32303711 75.02588867 154.70263672 75.54833984 C152.36031778 77.54539009 150.08486337 79.61146883 147.8125 81.6875 C142.70524518 86.32736877 137.37599207 90.6767212 132 95 C133.48817631 99.19961797 135.59630078 102.61102639 138.0625 106.3125 C157.49217527 136.18375975 170.09298881 169.65080379 175 205 C175.17515137 206.22654297 175.35030273 207.45308594 175.53076172 208.71679688 C177.04055092 219.89971975 177.40046993 230.97454041 177.375 242.25 C177.37418427 243.61980011 177.37418427 243.61980011 177.37335205 245.01727295 C177.193855 310.99895327 151.38015211 372.35293927 106 420 C105.14462646 420.898396 105.14462646 420.898396 104.27197266 421.81494141 C96.26221762 430.16517029 88.03680557 437.81210504 78.73730469 444.70263672 C77.01624144 445.98787142 75.323612 447.3042016 73.6328125 448.62890625 C49.29375932 467.42713839 21.32326829 480.22030438 -8 489 C-9.24716797 489.37680908 -9.24716797 489.37680908 -10.51953125 489.76123047 C-50.75086964 501.62157388 -99.60933704 503.03201647 -140 491 C-139.30384224 483.2168698 -137.31960512 475.77070133 -135.40234375 468.21875 C-135.04463611 466.79539179 -134.68734812 465.37192807 -134.33045959 463.94836426 C-133.39592912 460.22542 -132.45575178 456.50392492 -131.51434326 452.78271484 C-130.55233459 448.97580294 -129.59573959 445.16753148 -128.63867188 441.359375 C-126.76437465 433.90491802 -124.8841026 426.45198546 -123 419 C-109.17600107 420.96720868 -109.17600107 420.96720868 -104.88330078 421.62182617 C-96.18097531 422.89222461 -87.66515537 423.35095554 -78.875 423.3125 C-78.20601685 423.31067719 -77.53703369 423.30885437 -76.84777832 423.30697632 C-38.14795092 423.13077582 0.35723735 410.9592009 31 387 C32.423125 385.89205078 32.423125 385.89205078 33.875 384.76171875 C44.73482102 376.07694711 54.52650399 367.06647839 63 356 C63.73863281 355.06542969 64.47726562 354.13085938 65.23828125 353.16796875 C84.59769209 328.19131953 96.2065564 299.12501828 101 268 C101.19207031 266.79730469 101.38414062 265.59460938 101.58203125 264.35546875 C106.32345447 223.97803094 97.19968858 182.56225824 76 148 C71.68218238 148 69.64013471 150.57774942 66.5625 153.3125 C65.94213867 153.85358398 65.32177734 154.39466797 64.68261719 154.95214844 C60.64714289 158.48911085 56.68730382 162.10451607 52.75 165.75 C38.40384615 179 38.40384615 179 35 179 C34.89252567 178.45747463 34.78505135 177.91494926 34.67432022 177.35598373 C31.99879159 163.850242 29.32268011 150.34461584 26.64593983 136.83911419 C26.38148287 135.50479321 26.11702612 134.17047219 25.85256958 132.83615112 C25.72070847 132.17084462 25.58884737 131.50553811 25.45299047 130.8200708 C24.52131186 126.11918294 23.5898303 121.41825606 22.65841675 116.71731567 C15.26313959 79.37345955 15.26313959 79.37345955 7.80078125 42.04296875 C7.50737498 40.58189903 7.21396881 39.12082929 6.92056274 37.65975952 C5.6517829 31.34418859 4.3789259 25.02946356 3.10058594 18.71582031 C2.6724667 16.59050674 2.24440224 14.46518214 1.81640625 12.33984375 C1.62693924 11.41116989 1.43747223 10.48249603 1.24226379 9.52568054 C1.07538559 8.69470352 0.90850739 7.8637265 0.73657227 7.00756836 C0.59276627 6.2982164 0.44896027 5.58886444 0.30079651 4.85801697 C0 3 0 3 0 0 Z " fill="#8B85A6" transform="translate(334,13)"/>
</svg>
